<svg width="22" height="12" viewBox="0 0 22 12" xmlns="http://www.w3.org/2000/svg">
<path d="M18.2757 5.8845C18.2757 5.8845 21.175 2.076 21.4626 0.8235C21.5584 0.3765 21.3479 0.126 20.8481 0.126C20.8481 0.126 19.1777 0.126 18.3339 0.126C17.7571 0.126 17.5466 0.3585 17.3737 0.699C17.3737 0.699 16.0144 3.3975 14.3597 5.0985C13.8286 5.646 13.5583 5.8125 13.266 5.8125C13.0303 5.8125 12.9203 5.6295 12.9203 5.133V0.7875C12.9203 0.1785 12.8433 0 12.3059 0H8.27357C7.96714 0 7.77543 0.1665 7.77543 0.393C7.77543 0.966 8.71671 1.095 8.71671 2.646V5.847C8.71671 6.4905 8.679 6.741 8.35214 6.741C7.48786 6.741 5.434 3.969 4.28214 0.822C4.05114 0.1785 3.80129 0 3.14757 0H0.633286C0.268714 0 0 0.2325 0 0.5715C0 1.1985 0.787285 4.095 3.87829 7.9755C5.951 10.587 8.67743 12 11.1351 12C12.6311 12 12.9957 11.7675 12.9957 11.178V9.174C12.9957 8.673 13.2063 8.4585 13.5143 8.4585C13.86 8.4585 14.4697 8.562 15.895 9.8715C17.5843 11.3745 17.7006 12 18.6214 12H21.4437C21.7313 12 22 11.8755 22 11.427C22 10.8375 21.175 9.7815 19.9069 8.5305C19.3883 7.887 18.5444 7.1895 18.2757 6.867C17.8923 6.492 18.007 6.2775 18.2757 5.8845Z" fill="currentColor"/>
</svg>