<svg width="20" height="20" viewBox="0 0 20 20" xmlns="http://www.w3.org/2000/svg">
<path d="M2.56833 0H17.4333C18.845 0 20 1.155 20 2.56667V17.4333C20 18.845 18.845 20 17.4333 20H2.56833C1.155 20 0 18.845 0 17.4333V2.56667C0 1.155 1.155 0 2.56833 0ZM14.57 2.22167C14.075 2.22167 13.67 2.62833 13.67 3.12333V5.27833C13.67 5.775 14.075 6.18 14.57 6.18H16.83C17.325 6.18 17.73 5.775 17.73 5.27833V3.12333C17.73 2.62833 17.325 2.22167 16.83 2.22167H14.57ZM17.7383 8.45833H15.98C16.1467 9.00333 16.2367 9.57833 16.2367 10.175C16.2367 13.5017 13.4517 16.1983 10.0183 16.1983C6.58667 16.1983 3.80167 13.5017 3.80167 10.175C3.80167 9.57667 3.89333 9.00333 4.06 8.45833H2.22333V16.9083C2.22333 17.345 2.58 17.7017 3.01833 17.7017H16.945C17.3833 17.7017 17.7383 17.345 17.7383 16.9083V8.45833ZM10.0183 6.065C7.80167 6.065 6.00167 7.80667 6.00167 9.95833C6.00167 12.1067 7.8 13.85 10.0183 13.85C12.2367 13.85 14.035 12.1067 14.035 9.95833C14.0367 7.80667 12.2367 6.065 10.0183 6.065Z" fill="currentColor"/>
</svg>
